<svg width="49" height="48" viewBox="0 0 49 48" fill="none" xmlns="http://www.w3.org/2000/svg">
<mask id="mask0_2453_38278" style="mask-type:alpha" maskUnits="userSpaceOnUse" x="0" y="0" width="49" height="48">
<rect x="0.333984" width="48" height="48" fill="#D9D9D9"/>
</mask>
<g mask="url(#mask0_2453_38278)">
<path d="M2.23438 40V35.3C2.23438 34.1333 2.53438 33.075 3.13438 32.125C3.73438 31.175 4.56771 30.4666 5.63438 30C8.06771 28.9333 10.2594 28.1666 12.2094 27.7C14.1594 27.2333 16.1677 27 18.2344 27C20.301 27 22.301 27.2333 24.2344 27.7C26.1677 28.1666 28.351 28.9333 30.7844 30C31.851 30.4666 32.6927 31.175 33.3094 32.125C33.926 33.075 34.2344 34.1333 34.2344 35.3V40H2.23438ZM37.2344 40V35.3C37.2344 33.2 36.701 31.475 35.6344 30.125C34.5677 28.775 33.1677 27.6833 31.4344 26.85C33.7344 27.1166 35.901 27.5083 37.9344 28.025C39.9677 28.5416 41.6177 29.1333 42.8844 29.8C43.9844 30.4333 44.851 31.2166 45.4844 32.15C46.1177 33.0833 46.4344 34.1333 46.4344 35.3V40H37.2344ZM18.2344 23.95C16.0344 23.95 14.2344 23.25 12.8344 21.85C11.4344 20.45 10.7344 18.65 10.7344 16.45C10.7344 14.25 11.4344 12.45 12.8344 11.05C14.2344 9.64995 16.0344 8.94995 18.2344 8.94995C20.4344 8.94995 22.2344 9.64995 23.6344 11.05C25.0344 12.45 25.7344 14.25 25.7344 16.45C25.7344 18.65 25.0344 20.45 23.6344 21.85C22.2344 23.25 20.4344 23.95 18.2344 23.95ZM36.2344 16.45C36.2344 18.65 35.5344 20.45 34.1344 21.85C32.7344 23.25 30.9344 23.95 28.7344 23.95C28.3677 23.95 27.9594 23.925 27.5094 23.875C27.0594 23.825 26.651 23.7333 26.2844 23.6C27.0844 22.7666 27.6927 21.7416 28.1094 20.525C28.526 19.3083 28.7344 17.95 28.7344 16.45C28.7344 14.95 28.526 13.625 28.1094 12.475C27.6927 11.325 27.0844 10.2666 26.2844 9.29995C26.651 9.19995 27.0594 9.11662 27.5094 9.04995C27.9594 8.98328 28.3677 8.94995 28.7344 8.94995C30.9344 8.94995 32.7344 9.64995 34.1344 11.05C35.5344 12.45 36.2344 14.25 36.2344 16.45ZM5.23438 37H31.2344V35.3C31.2344 34.7666 31.076 34.25 30.7594 33.75C30.4427 33.25 30.051 32.9 29.5844 32.7C27.1844 31.6333 25.1677 30.9166 23.5344 30.55C21.901 30.1833 20.1344 30 18.2344 30C16.3344 30 14.5594 30.1833 12.9094 30.55C11.2594 30.9166 9.23438 31.6333 6.83437 32.7C6.36771 32.9 5.98438 33.25 5.68438 33.75C5.38438 34.25 5.23438 34.7666 5.23438 35.3V37ZM18.2344 20.95C19.5344 20.95 20.6094 20.525 21.4594 19.675C22.3094 18.825 22.7344 17.75 22.7344 16.45C22.7344 15.15 22.3094 14.075 21.4594 13.225C20.6094 12.375 19.5344 11.95 18.2344 11.95C16.9344 11.95 15.8594 12.375 15.0094 13.225C14.1594 14.075 13.7344 15.15 13.7344 16.45C13.7344 17.75 14.1594 18.825 15.0094 19.675C15.8594 20.525 16.9344 20.95 18.2344 20.95Z" fill="#FDE047"/>
</g>
</svg>
