<svg width="49" height="48" viewBox="0 0 49 48" fill="none" xmlns="http://www.w3.org/2000/svg">
<mask id="mask0_2453_38292" style="mask-type:alpha" maskUnits="userSpaceOnUse" x="0" y="0" width="49" height="48">
<rect x="0.666016" width="48" height="48" fill="#D9D9D9"/>
</mask>
<g mask="url(#mask0_2453_38292)">
<path d="M22.216 41.3H9.66602C8.86602 41.3 8.16602 41 7.56602 40.4C6.96602 39.8 6.66602 39.1 6.66602 38.3V9.19995C6.66602 8.39995 6.92435 7.69995 7.44102 7.09995C7.95768 6.49995 8.39935 6.19995 8.76602 6.19995H18.866C19.0993 5.03328 19.6743 4.07495 20.591 3.32495C21.5077 2.57495 22.566 2.19995 23.766 2.19995C24.966 2.19995 26.0244 2.57495 26.941 3.32495C27.8577 4.07495 28.4327 5.03328 28.666 6.19995H38.766C39.566 6.19995 40.266 6.49995 40.866 7.09995C41.466 7.69995 41.766 8.39995 41.766 9.19995V19.35H38.766V9.19995H33.466V15.7H14.966V9.19995H9.66602V38.3H22.216V41.3ZM31.666 40.05L23.666 32.05L25.816 29.9L31.666 35.75L43.616 23.8L45.766 25.95L31.666 40.05ZM24.666 8.99995C25.2327 8.99995 25.7077 8.80828 26.091 8.42495C26.4743 8.04162 26.666 7.56662 26.666 6.99995C26.666 6.43328 26.4743 5.95828 26.091 5.57495C25.7077 5.19162 25.2327 4.99995 24.666 4.99995C24.0993 4.99995 23.6243 5.19162 23.241 5.57495C22.8577 5.95828 22.666 6.43328 22.666 6.99995C22.666 7.56662 22.8577 8.04162 23.241 8.42495C23.6243 8.80828 24.0993 8.99995 24.666 8.99995Z" fill="#FDE047"/>
</g>
</svg>
