<svg width="48" height="48" viewBox="0 0 48 48" fill="none" xmlns="http://www.w3.org/2000/svg">
<mask id="mask0_2453_38285" style="mask-type:alpha" maskUnits="userSpaceOnUse" x="0" y="0" width="48" height="48">
<rect width="48" height="48" fill="#D9D9D9"/>
</mask>
<g mask="url(#mask0_2453_38285)">
<path d="M4 10.75V2H12.75V5H7V10.75H4ZM41 10.75V5H35.25V2H44V10.75H41ZM4 46V37.25H7V43H12.75V46H4ZM35.25 46V43H41V37.25H44V46H35.25ZM13 37H35V11H13V37ZM13 40C12.2 40 11.5 39.7 10.9 39.1C10.3 38.5 10 37.8 10 37V11C10 10.2 10.3 9.5 10.9 8.9C11.5 8.3 12.2 8 13 8H35C35.8 8 36.5 8.3 37.1 8.9C37.7 9.5 38 10.2 38 11V37C38 37.8 37.7 38.5 37.1 39.1C36.5 39.7 35.8 40 35 40H13ZM18.5 19.5H29.5V16.5H18.5V19.5ZM18.5 25.5H29.5V22.5H18.5V25.5ZM18.5 31.5H29.5V28.5H18.5V31.5Z" fill="#FDE047"/>
</g>
</svg>
